<?xml version="1.0" standalone="no"?>
<!DOCTYPE svg PUBLIC "-//W3C//DTD SVG 20010904//EN"
 "http://www.w3.org/TR/2001/REC-SVG-20010904/DTD/svg10.dtd">
<svg version="1.0" xmlns="http://www.w3.org/2000/svg"
 width="700.000000pt" height="700.000000pt" viewBox="0 0 700.000000 700.000000"
 preserveAspectRatio="xMidYMid meet">
<metadata>
Created by potrace 1.11, written by Peter Selinger 2001-2013
</metadata>
<g transform="translate(0.000000,700.000000) scale(0.100000,-0.100000)"
fill="#000000" stroke="none">
<path d="M3310 6994 c-389 -33 -616 -77 -910 -174 -1045 -344 -1876 -1175
-2220 -2220 -122 -369 -174 -699 -174 -1100 0 -241 9 -361 45 -580 174 -1064
853 -2004 1812 -2511 403 -213 814 -337 1292 -391 142 -16 548 -16 690 0 820
93 1521 419 2094 976 535 521 891 1200 1010 1926 36 219 45 339 45 580 0 241
-9 361 -45 580 -174 1064 -853 2004 -1812 2511 -392 207 -793 331 -1242 384
-126 15 -493 27 -585 19z m488 -606 c349 -255 563 -421 636 -492 176 -174 222
-471 121 -781 -15 -44 -51 -132 -81 -196 -86 -183 -75 -190 76 -52 192 176
343 257 537 290 164 28 320 -4 463 -95 63 -40 421 -296 650 -464 85 -63 161
-126 169 -140 14 -25 7 -51 -138 -495 -94 -285 -169 -499 -194 -547 -46 -90
-150 -203 -237 -257 -179 -113 -357 -140 -680 -103 -153 18 -220 13 -199 -12
7 -8 70 -44 141 -80 251 -128 395 -264 483 -457 45 -100 55 -151 56 -280 0
-99 -4 -125 -35 -232 -38 -132 -130 -428 -222 -717 l-59 -188 -260 0 c-143 -1
-366 -5 -495 -10 -261 -9 -363 -2 -473 35 -137 47 -243 132 -334 268 -96 142
-144 294 -188 589 -19 129 -30 174 -43 184 -15 11 -18 8 -30 -29 -7 -23 -17
-94 -22 -157 -21 -255 -71 -421 -174 -578 -105 -159 -238 -259 -404 -304 -74
-19 -102 -20 -617 -19 -499 1 -541 2 -556 19 -10 9 -60 163 -113 342 -52 179
-107 359 -121 400 -78 227 -99 369 -76 506 15 84 52 181 98 253 107 168 352
345 605 436 85 30 123 60 98 75 -23 15 -72 12 -265 -16 -331 -47 -520 -24
-686 84 -148 97 -246 235 -310 440 -22 70 -94 289 -159 487 -78 239 -115 366
-111 380 4 11 70 61 147 111 76 51 238 166 359 257 242 182 370 266 443 292
244 87 470 48 689 -117 39 -29 132 -110 206 -179 74 -69 145 -129 156 -132 37
-9 26 47 -28 142 -126 221 -176 400 -168 606 3 94 10 138 30 200 31 95 108
217 175 275 113 101 849 640 873 640 9 0 129 -82 267 -182z"/>
<path d="M3462 6297 c-24 -25 -85 -196 -448 -1246 -90 -260 -171 -484 -179
-498 -9 -13 -27 -28 -40 -33 -13 -5 -437 -23 -942 -40 -505 -16 -931 -33 -946
-36 -33 -7 -43 -25 -28 -52 6 -12 125 -100 263 -198 569 -400 1225 -868 1251
-892 15 -14 27 -35 27 -45 0 -11 -27 -103 -60 -204 -142 -435 -520 -1673 -520
-1703 0 -32 1 -32 36 -25 42 7 114 61 986 727 389 298 594 448 610 448 15 0
275 -194 771 -575 412 -316 756 -579 765 -584 9 -4 29 -11 45 -15 27 -6 27 -6
27 43 0 28 -11 85 -24 128 -20 64 -283 972 -455 1570 -23 78 -41 150 -41 160
0 11 12 31 28 45 15 14 360 256 766 538 407 282 748 522 758 534 25 31 22 44
-14 61 -32 14 -166 24 -1587 116 -178 11 -334 24 -347 29 -13 5 -30 21 -40 34
-9 14 -65 169 -125 343 -232 676 -472 1342 -493 1367 l-21 27 -23 -24z m-304
-2081 c65 -18 143 -61 236 -132 96 -74 121 -73 213 1 37 31 106 75 152 98 82
41 88 42 180 42 89 0 102 -3 163 -33 130 -64 178 -154 178 -331 0 -60 -5 -133
-10 -162 -44 -234 -283 -540 -575 -736 -174 -117 -232 -114 -423 23 -257 184
-429 392 -521 627 -35 89 -36 96 -36 227 0 127 2 138 28 195 74 159 235 229
415 181z"/>
</g>
</svg>
