<svg xmlns="http://www.w3.org/2000/svg" viewBox="0 0 600 126.21297">
  <g>
    <path d="M150.31536,130.62644c26.58427,0,38.35962,13.11025,38.35962,37.75226,0,18.20949-7.64724,31.92711-25.97853,31.92711-10.43883,0-17.6005-4.24991-25.73331-14.93234L123.00193,167.0438c-3.03518-3.88452-8.74016-4.12811-12.50289,0-3.27715,3.64093-2.66979,8.98376.48557,12.50289l14.93071,16.7528c4.97745,5.705,7.0415,10.317,7.0415,16.26561,0,8.4982-5.221,12.13912-14.56694,12.13912-8.3764,0-16.02364-2.79159-16.02364-18.08769V154.29732c0-13.59582,7.40527-23.67088,23.18531-23.67088ZM124.45863,161.217,166.581,182.58188c12.26092,6.19054,19.05883-1.57849,12.74649-10.56063L160.876,145.55715c-4.37008-6.19054-6.55431-6.79791-13.11025-4.12649l-22.45616,9.22574c-3.157,1.33489-5.09924,2.548-5.09924,5.09761C120.21034,157.81807,121.42506,159.63853,124.45863,161.217Z" transform="translate(-102.36624 -130.62644)" fill="#1a1a1a"/>
    <g>
      <path d="M223.98783,226.45759a42.60391,42.60391,0,0,1-16.94328-3.14021,29.256,29.256,0,0,1-11.68517-8.69156,25.11941,25.11941,0,0,1-5.25812-12.85407h18.84128a12.11823,12.11823,0,0,0,4.747,7.22942,15.87929,15.87929,0,0,0,10.00509,2.99559q6.13383,0,8.9828-2.48444a7.38688,7.38688,0,0,0,2.849-5.696,6.2723,6.2723,0,0,0-4.08921-6.35373,72.25055,72.25055,0,0,0-11.39194-3.28682q-4.67763-1.01934-9.494-2.48444a43.55044,43.55044,0,0,1-8.84015-3.72467,19.23915,19.23915,0,0,1-6.49836-5.84258,15.11915,15.11915,0,0,1-2.48443-8.83618,20.54093,20.54093,0,0,1,7.66727-16.21421q7.67322-6.57364,21.54762-6.57364,12.85011,0,20.52134,5.98919,7.67322,5.99116,9.12941,16.50544H233.92161q-1.61073-8.02984-12.125-8.0338-5.26011,0-8.1071,2.04461a6.10687,6.10687,0,0,0-2.849,5.11349q0,3.2155,4.23582,5.11152a61.95916,61.95916,0,0,0,11.2493,3.50674q7.59,1.75337,13.9477,3.87128a23.44612,23.44612,0,0,1,10.15171,6.28042q3.798,4.1635,3.79995,11.90508a20.36547,20.36547,0,0,1-3.50674,12.123A24.2,24.2,0,0,1,240.202,223.3887,39.46952,39.46952,0,0,1,223.98783,226.45759Z" transform="translate(-102.36624 -130.62644)" fill="#1a1a1a"/>
      <path d="M264.59466,256.83941,281.3953,219.884h-4.38243l-28.19258-67.6305H269.1237l20.30342,50.97845,21.18307-50.97845h19.86358l-46.01156,104.586Z" transform="translate(-102.36624 -130.62644)" fill="#1a1a1a"/>
      <path d="M331.34947,224.70422V152.25345h16.50742l1.45817,12.26961a25.49558,25.49558,0,0,1,9.71584-10.225,28.64312,28.64312,0,0,1,14.97-3.798q13.43853,0,20.88986,8.47164,7.44735,8.4756,7.44934,24.83245v40.9H383.64146V185.55754q0-9.34633-3.796-14.31422-3.80392-4.9659-11.83178-4.96689a16.68409,16.68409,0,0,0-12.92936,5.54936q-5.04018,5.55432-5.03623,15.48512v37.39331Z" transform="translate(-102.36624 -130.62644)" fill="#1a1a1a"/>
      <path d="M433.7462,226.45759q-9.34932,0-15.33851-2.99558a20.70663,20.70663,0,0,1-8.91147-7.9605,21.17717,21.17717,0,0,1-2.9203-10.95409,19.93793,19.93793,0,0,1,7.88917-16.36081q7.88718-6.27945,23.66354-6.28043h18.40145v-1.75337q0-7.45033-4.23582-10.95608A15.94943,15.94943,0,0,0,441.778,165.692a18.08366,18.08366,0,0,0-9.93377,2.70236,11.63453,11.63453,0,0,0-5.25813,7.96049H408.3273a25.49014,25.49014,0,0,1,5.33342-13.72976,29.8597,29.8597,0,0,1,11.90309-8.98478,41.04586,41.04586,0,0,1,16.36081-3.14021q15.48314,0,24.39263,7.74256,8.90949,7.74453,8.91147,21.91017v44.55141h-15.921l-1.75535-11.68516a26.97131,26.97131,0,0,1-8.9828,9.64056Q442.79834,226.45462,433.7462,226.45759Zm4.23582-14.60744q8.02983,0,12.48953-5.25813a25.56548,25.56548,0,0,0,5.62267-13.00068h-15.921q-7.45329,0-10.66285,2.70237a8.35973,8.35973,0,0,0-3.21352,6.647,7.64519,7.64519,0,0,0,3.21352,6.57166A14.06385,14.06385,0,0,0,437.982,211.85015Z" transform="translate(-102.36624 -130.62644)" fill="#1a1a1a"/>
      <path d="M482.38484,256.83941v-104.586h16.65007l2.04857,10.37162a33.24293,33.24293,0,0,1,9.272-8.47363q5.77125-3.64938,14.974-3.65136a34.03755,34.03755,0,0,1,18.25881,4.96688,35.6161,35.6161,0,0,1,12.70746,13.58514,40.407,40.407,0,0,1,4.67565,19.57235,39.98979,39.98979,0,0,1-4.67565,19.501A35.20229,35.20229,0,0,1,543.58831,221.564a34.41246,34.41246,0,0,1-18.25881,4.89358,31.59918,31.59918,0,0,1-14.31621-3.06889,25.74815,25.74815,0,0,1-9.92981-8.61825v42.069Zm39.002-46.74263a19.74225,19.74225,0,0,0,14.75207-5.98919q5.84259-5.98522,5.8406-15.48314,0-9.492-5.8406-15.62974a20.986,20.986,0,0,0-29.57942-.07331q-5.77127,6.06547-5.76928,15.55644,0,9.49791,5.76928,15.55645A19.54977,19.54977,0,0,0,521.38689,210.09678Z" transform="translate(-102.36624 -130.62644)" fill="#1a1a1a"/>
      <path d="M595.44443,226.45759a42.63752,42.63752,0,0,1-16.94725-3.14021,29.25592,29.25592,0,0,1-11.68516-8.69156,25.18742,25.18742,0,0,1-5.25813-12.85407h18.84525a12.1005,12.1005,0,0,0,4.747,7.22942,15.87157,15.87157,0,0,0,10.0051,2.99559q6.13381,0,8.9828-2.48444a7.39936,7.39936,0,0,0,2.849-5.696,6.27721,6.27721,0,0,0-4.08921-6.35373,72.31889,72.31889,0,0,0-11.3959-3.28682q-4.67764-1.01934-9.494-2.48444a43.41985,43.41985,0,0,1-8.83619-3.72467,19.28992,19.28992,0,0,1-6.50232-5.84258,15.11759,15.11759,0,0,1-2.48047-8.83618,20.54093,20.54093,0,0,1,7.66727-16.21421q7.66728-6.57364,21.54365-6.57364,12.85607,0,20.52531,5.98919,7.66728,5.99116,9.12941,16.50544H605.37424q-1.60477-8.02984-12.121-8.0338-5.26011,0-8.10711,2.04461a6.09745,6.09745,0,0,0-2.849,5.11349q0,3.2155,4.23582,5.11152a61.905,61.905,0,0,0,11.24533,3.50674q7.596,1.75337,13.95167,3.87128a23.446,23.446,0,0,1,10.1517,6.28042q3.798,4.1635,3.796,11.90508a20.3348,20.3348,0,0,1-3.50278,12.123,24.2348,24.2348,0,0,1-10.52021,8.47164A39.45015,39.45015,0,0,1,595.44443,226.45759Z" transform="translate(-102.36624 -130.62644)" fill="#1a1a1a"/>
      <path d="M665.99523,226.45759a39.53549,39.53549,0,0,1-19.42772-4.67565,33.8029,33.8029,0,0,1-13.2939-13.14531,38.88419,38.88419,0,0,1-4.8183-19.57433,41.32713,41.32713,0,0,1,4.747-20.0102,34.45218,34.45218,0,0,1,13.14333-13.65844,38.64036,38.64036,0,0,1,19.79227-4.89358,37.33941,37.33941,0,0,1,18.84524,4.67367,33.62254,33.62254,0,0,1,12.78275,12.78275,35.90557,35.90557,0,0,1,4.60037,18.03889c0,1.07381-.02774,2.19122-.07529,3.36013s-.12283,2.38735-.21793,3.65136H647.00338q.58247,8.47264,5.91588,13.29193a18.59595,18.59595,0,0,0,12.92936,4.82027,16.97248,16.97248,0,0,0,9.56527-2.55575,15.8093,15.8093,0,0,0,5.76928-6.647H700.175a34.49079,34.49079,0,0,1-6.79158,12.48954,33.52329,33.52329,0,0,1-11.68516,8.83816A37.00084,37.00084,0,0,1,665.99523,226.45759Zm.14265-60.76561a19.91228,19.91228,0,0,0-12.121,3.87128q-5.26011,3.87226-6.72026,11.75846h36.07779a15.7612,15.7612,0,0,0-5.25812-11.39392A17.49728,17.49728,0,0,0,666.13788,165.692Z" transform="translate(-102.36624 -130.62644)" fill="#1a1a1a"/>
    </g>
  </g>
</svg>
